<svg width="19" height="12" viewBox="0 0 19 12" fill="none" xmlns="http://www.w3.org/2000/svg">
<path d="M9.5 3C7.81299 3 6.44229 4.34483 6.44229 6C6.44229 7.65517 7.81299 9 9.5 9C11.187 9 12.5577 7.65517 12.5577 6C12.5577 4.34483 11.187 3 9.5 3ZM9.26803 5.11034C8.88846 5.11034 8.57214 5.42069 8.57214 5.7931H7.55993C7.58102 4.86207 8.34018 4.11724 9.26803 4.11724V5.11034Z" fill="white"/>
<path d="M18.7786 5.37931C17.7453 4.11724 14.0549 0 9.5 0C4.94506 0 1.25472 4.11724 0.221421 5.37931C-0.0738069 5.73103 -0.0738069 6.24828 0.221421 6.62069C1.25472 7.88276 4.94506 12 9.5 12C14.0549 12 17.7453 7.88276 18.7786 6.62069C19.0738 6.26897 19.0738 5.75172 18.7786 5.37931ZM9.5 10.3448C7.05383 10.3448 5.07159 8.4 5.07159 6C5.07159 3.6 7.05383 1.65517 9.5 1.65517C11.9462 1.65517 13.9284 3.6 13.9284 6C13.9284 8.4 11.9462 10.3448 9.5 10.3448Z" fill="white"/>
</svg>
