<svg width="18" height="22" viewBox="0 0 18 22" fill="none" xmlns="http://www.w3.org/2000/svg">
<path fill-rule="evenodd" clip-rule="evenodd" d="M4.79678 19.3083C4.6002 18.9516 4.40362 18.5624 4.2398 18.2057C3.91216 18.4003 3.61728 18.6597 3.38793 18.984C2.92924 19.5353 2.56884 20.2488 2.33949 20.9947V21.0271C2.2412 21.3838 2.04462 21.6433 1.84803 21.8054C1.65145 21.9351 1.45487 22 1.25828 22C1.0617 22 0.865116 21.9027 0.701296 21.773C0.504713 21.6108 0.340893 21.319 0.242601 20.9622C-0.150565 19.0164 -0.0522735 17.1679 0.439185 15.4816C0.930643 13.8277 1.7825 12.3359 2.962 11.136C3.0603 8.93073 3.58452 6.88764 4.46914 5.104C5.48482 3.02848 6.92643 1.30969 8.66292 0.109787C8.89227 -0.0523629 9.18714 -0.019933 9.38373 0.109787C11.1202 1.30969 12.5618 3.02848 13.5447 5.07157C14.3966 6.85521 14.9536 8.93073 15.0519 11.1035C16.2314 12.3034 17.0832 13.7952 17.5747 15.4491C18.0662 17.1355 18.1317 18.984 17.7713 20.8974C17.7058 21.2541 17.5419 21.546 17.3126 21.7081C17.1488 21.8378 16.9522 21.9351 16.7556 21.9351C16.559 21.9351 16.3624 21.8703 16.1659 21.7406C15.9693 21.5784 15.7727 21.319 15.6744 20.9622V20.9298C15.445 20.1839 15.0846 19.4705 14.6259 18.9192C14.3638 18.5949 14.069 18.3354 13.7741 18.1408C13.6103 18.53 13.4137 18.9192 13.1843 19.2759C13.086 19.4705 12.8567 19.6002 12.6274 19.6002H10.2028C10.0062 20.6704 9.74413 21.2865 9.48202 21.5784C9.25267 21.8378 8.8595 21.8379 8.59739 21.6108C8.56463 21.6108 8.56463 21.5784 8.56463 21.5784C8.30252 21.2865 8.04041 20.6379 7.84382 19.6002H5.4193C5.12442 19.665 4.89507 19.5029 4.79678 19.3083ZM3.7811 17.0382C3.65005 16.6166 3.51899 16.195 3.38793 15.7734C3.15859 14.8978 3.02753 13.9898 2.962 13.0493C2.37225 13.8925 1.91356 14.833 1.61868 15.8383C1.25828 17.1355 1.12723 18.5624 1.35657 20.0542C1.61869 19.3732 1.97909 18.7246 2.40502 18.2057C2.79818 17.6868 3.28964 17.2977 3.7811 17.0382ZM4.63296 15.4491C4.89507 16.5193 5.28824 17.4922 5.74693 18.4003H7.61448C7.48342 17.0706 7.38513 15.1897 7.38513 12.6926V12.498C7.38513 12.1089 7.61448 11.817 7.97488 11.6548L8.00764 11.6224C8.26975 11.4927 8.59739 11.4278 8.9578 11.3954C8.99056 11.3954 9.02332 11.3954 9.02332 11.3954C9.38373 11.4278 9.71137 11.4927 9.97348 11.6224H10.0062C10.3666 11.817 10.596 12.0764 10.596 12.4656V12.6602C10.596 15.1573 10.4977 17.0382 10.3339 18.4003H12.2014C12.6929 17.4922 13.0533 16.4869 13.3154 15.4491C13.5775 14.379 13.7413 13.2439 13.7413 12.0764V11.8494C13.7413 9.57933 13.2499 7.43895 12.3652 5.62288C11.5134 3.90409 10.3666 2.44474 8.9578 1.37455C7.54895 2.41231 6.36945 3.87166 5.55035 5.62288C4.66573 7.43895 4.17427 9.57933 4.17427 11.8494V12.0764C4.20703 13.2763 4.37085 14.379 4.63296 15.4491ZM14.9864 13.0169C14.9208 13.9574 14.757 14.8654 14.5604 15.741C14.4621 16.1626 14.3311 16.5842 14.1673 17.0058C14.6915 17.2977 15.1502 17.6868 15.5433 18.1408C15.9693 18.6597 16.3297 19.3083 16.5918 19.9893C16.7884 18.4976 16.6901 17.0706 16.3297 15.7734C16.0348 14.8006 15.5761 13.8601 14.9864 13.0169ZM8.99056 18.8219C9.08885 18.076 9.18714 17.2977 9.25267 16.3572C9.3182 15.514 9.35096 14.5411 9.35096 13.2763V12.6926C9.25267 12.6602 9.12162 12.6602 8.99056 12.6277C8.8595 12.6277 8.72845 12.6602 8.63016 12.6926V13.2763C8.63016 14.5411 8.66292 15.514 8.72845 16.3572C8.79398 17.2977 8.8595 18.076 8.99056 18.8219ZM8.99056 10.6171C9.80966 10.6171 10.5305 10.2928 11.0874 9.77391C11.6117 9.25503 11.9393 8.50914 11.9393 7.69839C11.9393 6.88765 11.6117 6.17419 11.0874 5.62288C10.5632 5.07157 9.80966 4.7797 8.99056 4.7797C8.17146 4.7797 7.45066 5.104 6.89367 5.62288C6.36945 6.14176 6.04181 6.88765 6.04181 7.69839C6.04181 8.50914 6.36945 9.2226 6.89367 9.77391C7.41789 10.2928 8.17146 10.6171 8.99056 10.6171ZM7.7783 8.8983C8.07317 9.19017 8.4991 9.38475 8.99056 9.38475C9.44925 9.38475 9.87518 9.19017 10.2028 8.8983C10.4977 8.60643 10.6943 8.18484 10.6943 7.69839C10.6943 7.24437 10.4977 6.82279 10.2028 6.49849C9.90795 6.20662 9.48202 6.01204 8.99056 6.01204C8.53187 6.01204 8.10594 6.20662 7.7783 6.49849C7.48342 6.79036 7.28684 7.21194 7.28684 7.69839C7.28684 8.18484 7.45066 8.60643 7.7783 8.8983Z" fill="#10E5FC"/>
</svg>
