<svg width="216" height="58" viewBox="0 0 216 58" fill="none" xmlns="http://www.w3.org/2000/svg">
<path fill-rule="evenodd" clip-rule="evenodd" d="M68.6188 24.8333C68.6188 26.3333 68.2051 27.5833 67.4605 28.5833C66.7159 29.5833 65.6404 30.25 64.3166 30.6667L68.4533 37C68.7015 37.4167 68.7842 37.75 68.7842 38.1667C68.7842 38.5833 68.6188 38.9167 68.4533 39.1667C68.2051 39.5 67.9569 39.6667 67.626 39.9167C67.295 40.0833 66.9641 40.1667 66.6332 40.1667C65.8058 40.1667 65.2267 39.8333 64.813 39.25L59.6835 31.1667H57.6152V38.1667C57.6152 38.4167 57.5324 38.6667 57.4497 38.9167C57.367 39.1667 57.2015 39.4167 56.9533 39.5833C56.7878 39.75 56.5396 39.9167 56.2914 40C56.0432 40.0833 55.795 40.1667 55.4641 40.1667C54.885 40.1667 54.3886 40 53.9749 39.5833C53.5612 39.1667 53.313 38.75 53.313 38.1667V20.5C53.313 20.1667 53.3958 19.9167 53.4785 19.6667C53.5612 19.4167 53.7267 19.1667 53.9749 19C54.2231 18.8333 54.4713 18.6667 54.7195 18.5C54.9677 18.4167 55.2986 18.3333 55.6296 18.3333H60.9245C62.331 18.3333 63.572 18.5 64.4821 18.9167C65.4749 19.3333 66.2195 19.75 66.7986 20.4167C67.3778 21 67.7914 21.75 68.0396 22.5C68.4533 23.25 68.6188 24 68.6188 24.8333ZM64.3166 24.8333C64.3166 24.5 64.2339 24.1667 64.1511 23.9167C64.0684 23.5833 63.9029 23.3333 63.6547 23.0833C63.4065 22.8333 63.0756 22.6667 62.5792 22.5C62.1655 22.3333 61.5864 22.25 60.8418 22.25H57.6152V27.3333H61.0073C62.0828 27.3333 62.8274 27.0833 63.4065 26.6667C64.0684 26.25 64.3166 25.5833 64.3166 24.8333ZM77.8022 40.1667C76.7267 40.1667 75.8166 40 74.9893 39.75C74.1619 39.4167 73.5001 39.0833 72.9209 38.5C72.3418 38 71.9281 37.4167 71.6799 36.6667C71.4317 36 71.2663 35.25 71.2663 34.4167V29.8333C71.2663 29 71.4317 28.25 71.6799 27.5833C71.9281 26.9167 72.4245 26.25 72.9209 25.75C73.5001 25.25 74.1619 24.8333 74.9893 24.5C75.8166 24.1667 76.7267 24.0833 77.8022 24.0833C78.8778 24.0833 79.7878 24.25 80.6152 24.5C81.4425 24.8333 82.1044 25.1667 82.6835 25.75C83.2627 26.25 83.6763 26.8333 83.9245 27.5833C84.1727 28.25 84.3382 29 84.3382 29.8333V34.4167C84.3382 35.25 84.1727 36 83.9245 36.6667C83.6763 37.3333 83.1799 38 82.6835 38.5C82.1044 39 81.4425 39.4167 80.6152 39.75C79.8706 40 78.8778 40.1667 77.8022 40.1667ZM77.8022 36.5C78.6296 36.5 79.2087 36.3333 79.6224 35.9167C80.036 35.5833 80.2015 35 80.2015 34.4167V29.8333C80.2015 29.1667 80.036 28.6667 79.6224 28.3333C79.2087 28 78.6296 27.75 77.8022 27.75C76.9749 27.75 76.3958 27.9167 75.9821 28.3333C75.5684 28.6667 75.4029 29.1667 75.4029 29.8333V34.4167C75.4029 35.0833 75.5684 35.5833 75.9821 35.9167C76.4785 36.3333 77.0576 36.5 77.8022 36.5ZM87.1512 30.1667C87.1512 29.3333 87.2339 28.5833 87.4821 27.8333C87.7303 27.0833 88.144 26.5 88.6404 26C89.1368 25.5 89.7986 25.0833 90.626 24.75C91.4533 24.4167 92.3634 24.25 93.4389 24.25C93.8526 24.25 94.4317 24.25 95.0109 24.3333C95.59 24.4167 96.1691 24.5 96.7483 24.75C97.3274 25 97.7411 25.25 98.1547 25.5833C98.5684 25.9167 98.7339 26.4167 98.7339 26.9167C98.7339 27.25 98.5684 27.6667 98.3202 28C98.072 28.3333 97.5756 28.5 96.831 28.5C96.6655 28.5 96.5001 28.5 96.3346 28.5C96.1691 28.5 96.0037 28.4167 95.7555 28.3333C95.4245 28.25 95.0936 28.0833 94.8454 28C94.5145 27.9167 94.1835 27.8333 93.6871 27.8333C92.8598 27.8333 92.1979 28.0833 91.867 28.5C91.536 28.9167 91.3706 29.5 91.3706 30.1667V34.3333C91.3706 35.0833 91.536 35.5833 91.867 36C92.1979 36.4167 92.8598 36.6667 93.6871 36.6667C94.1835 36.6667 94.5145 36.5833 94.8454 36.5C95.1763 36.4167 95.4245 36.25 95.7555 36.1667C95.9209 36.0833 96.0864 36.0833 96.1691 36C96.2519 36 96.5001 35.9167 96.6655 35.9167C97.0792 35.9167 97.4101 36 97.6583 36.0833C97.9065 36.1667 98.1547 36.3333 98.2375 36.4167C98.4029 36.5833 98.4857 36.75 98.5684 36.9167C98.6511 37.0833 98.6511 37.25 98.6511 37.5C98.6511 38.0833 98.4857 38.5 98.072 38.8333C97.6583 39.1667 97.2447 39.4167 96.6655 39.6667C96.1691 39.8333 95.59 40 94.9281 40.0833C94.349 40.1667 93.7699 40.1667 93.3562 40.1667C92.2807 40.1667 91.3706 40 90.5432 39.6667C89.7986 39.3333 89.1368 38.9167 88.5576 38.4167C88.0612 37.9167 87.6476 37.25 87.3993 36.5833C87.1511 35.8333 86.9857 35.0833 86.9857 34.25V30.1667H87.1512ZM109.655 24.8333C109.82 24.6667 110.068 24.5 110.317 24.4167C110.565 24.3333 110.813 24.3333 111.061 24.3333C111.64 24.3333 112.137 24.5 112.55 24.8333C112.964 25.1667 113.13 25.5833 113.13 26.1667C113.13 26.6667 112.964 27.0833 112.55 27.4167L108.827 31.3333L113.295 37.25C113.378 37.4167 113.461 37.5833 113.543 37.8333C113.626 38.0833 113.626 38.25 113.626 38.4167C113.626 38.9167 113.378 39.3333 112.964 39.6667C112.55 40 112.137 40.0833 111.558 40.0833C110.813 40.0833 110.234 39.8333 109.82 39.25L105.684 33.6667L105.518 34V38.25C105.518 38.75 105.353 39.25 104.939 39.5833C104.525 39.9167 104.029 40.1667 103.45 40.1667C102.871 40.1667 102.374 40 101.961 39.5833C101.547 39.25 101.381 38.75 101.381 38.25V19.6667C101.381 19.1667 101.547 18.6667 101.961 18.3333C102.374 18 102.871 17.75 103.45 17.75C104.029 17.75 104.525 17.9167 104.939 18.3333C105.353 18.6667 105.518 19.1667 105.518 19.6667V29.4167L109.655 24.8333ZM122.065 34.0833C121.651 34.0833 121.237 34.0833 120.907 34C120.576 34 120.162 33.9167 119.666 33.8333V34.8333C119.666 35.3333 119.831 35.75 120.245 36.0833C120.658 36.4167 121.237 36.5833 122.065 36.5833C122.561 36.5833 122.975 36.5 123.471 36.4167C123.885 36.3333 124.381 36.1667 124.878 35.9167C124.961 35.9167 125.043 35.8333 125.209 35.8333C125.374 35.8333 125.54 35.75 125.788 35.75C126.119 35.75 126.45 35.8333 126.698 35.9167C126.946 36 127.112 36.1667 127.277 36.3333C127.443 36.5 127.525 36.6667 127.608 36.8333C127.691 37 127.691 37.25 127.691 37.4167C127.691 37.9167 127.443 38.4167 127.029 38.75C126.615 39.0833 126.119 39.3333 125.457 39.5833C124.878 39.75 124.216 39.9167 123.554 40C122.892 40.0833 122.313 40.0833 121.817 40.0833C120.824 40.0833 119.914 39.9167 119.086 39.6667C118.342 39.4167 117.68 39 117.101 38.5C116.604 38 116.191 37.4167 115.86 36.8333C115.529 36.25 115.446 35.5 115.446 34.75V29.6667C115.446 28.9167 115.612 28.1667 115.86 27.5C116.108 26.8333 116.522 26.25 117.101 25.75C117.68 25.25 118.342 24.9167 119.169 24.5833C119.996 24.3333 120.907 24.1667 121.982 24.1667C123.968 24.1667 125.457 24.6667 126.45 25.5833C127.443 26.5833 127.939 27.8333 127.939 29.3333C127.939 30.8333 127.443 31.9167 126.532 32.75C125.705 33.6667 124.133 34.0833 122.065 34.0833ZM123.802 29.1667C123.802 28.5833 123.637 28.0833 123.306 27.8333C122.975 27.5833 122.561 27.4167 121.982 27.4167C121.237 27.4167 120.658 27.5833 120.327 27.9167C119.914 28.25 119.748 28.75 119.748 29.3333V30.6667C120.245 30.6667 120.658 30.75 121.072 30.75C121.486 30.75 121.734 30.75 121.899 30.75C122.478 30.75 122.975 30.6667 123.306 30.4167C123.637 30.3333 123.802 29.8333 123.802 29.1667ZM130.835 21.6667C130.835 21.1667 131 20.6667 131.414 20.3333C131.745 20 132.324 19.8333 132.986 19.8333C133.648 19.8333 134.144 20 134.558 20.4167C134.889 20.75 135.137 21.25 135.137 21.75V25.1667H137.371C137.95 25.1667 138.446 25.3333 138.777 25.6667C139.191 26 139.356 26.4167 139.356 27C139.356 27.5 139.191 28 138.777 28.3333C138.363 28.6667 137.95 28.8333 137.371 28.8333H135.137V33.5C135.137 34.0833 135.137 34.5833 135.219 34.9167C135.219 35.3333 135.302 35.5833 135.468 35.8333C135.55 36.0833 135.716 36.25 135.964 36.3333C136.212 36.4167 136.461 36.5 136.791 36.5C136.957 36.5 137.04 36.5 137.122 36.5C137.205 36.5 137.288 36.5 137.288 36.5C138.281 36.5 138.943 36.6667 139.273 36.9167C139.604 37.1667 139.77 37.5833 139.77 38.1667C139.77 38.5833 139.687 39 139.522 39.25C139.356 39.5 139.108 39.75 138.86 39.8333C138.612 40 138.281 40.0833 137.95 40.0833C137.619 40.0833 137.205 40.1667 136.874 40.1667C135.716 40.1667 134.723 40 133.978 39.75C133.234 39.5 132.572 39.0833 132.158 38.5C131.745 37.9167 131.414 37.25 131.248 36.5C131.083 35.6667 131 34.75 131 33.75V21.6667H130.835Z" fill="white"/>
<path fill-rule="evenodd" clip-rule="evenodd" d="M146.058 32.5833V38.1666C146.058 38.6666 145.809 39.1666 145.396 39.5833C144.982 39.9999 144.486 40.1666 143.907 40.1666C143.327 40.1666 142.831 39.9999 142.417 39.5833C142.004 39.1666 141.756 38.7499 141.756 38.1666V20.4999C141.756 20.1666 141.838 19.9166 141.921 19.6666C142.086 19.4166 142.252 19.1666 142.417 18.9999C142.666 18.8333 142.914 18.6666 143.162 18.4999C143.41 18.4166 143.741 18.3333 144.072 18.3333H148.54C149.946 18.3333 151.187 18.4999 152.18 18.9166C153.173 19.3333 154 19.8333 154.579 20.4999C155.158 21.1666 155.655 21.9166 155.903 22.7499C156.151 23.5833 156.317 24.4999 156.317 25.4166C156.317 26.5833 156.151 27.5833 155.738 28.4166C155.407 29.3333 154.827 29.9999 154.166 30.5833C153.504 31.1666 152.676 31.6666 151.684 31.9166C150.691 32.2499 149.698 32.4166 148.457 32.4166H146.058V32.5833ZM146.058 28.6666H148.622C149.781 28.6666 150.691 28.4166 151.27 27.9166C151.849 27.4166 152.18 26.5833 152.18 25.4999C152.18 25.0833 152.097 24.7499 152.015 24.3333C151.932 23.9166 151.766 23.5833 151.518 23.2499C151.27 22.9166 150.939 22.6666 150.443 22.4999C149.946 22.3333 149.367 22.2499 148.705 22.2499H146.058V28.6666ZM166.245 28.0833C165.914 28.0833 165.666 28.0833 165.417 27.9999C165.169 27.9999 164.921 27.9999 164.756 27.9999C164.507 27.9999 164.342 28.0833 164.094 28.0833C163.845 28.1666 163.68 28.2499 163.349 28.3333C163.349 28.4166 163.349 28.4999 163.432 28.5833C163.432 28.6666 163.432 28.7499 163.432 28.8333V38.0833C163.432 38.5833 163.266 39.0833 162.853 39.4166C162.439 39.7499 161.943 39.9999 161.363 39.9999C160.784 39.9999 160.288 39.8333 159.874 39.4166C159.461 39.0833 159.295 38.5833 159.295 38.0833V28.9999C159.295 28.6666 159.295 28.3333 159.212 28.1666C159.13 27.9166 159.047 27.7499 158.964 27.5833C158.881 27.4166 158.716 27.2499 158.633 27.0833C158.55 26.9166 158.551 26.7499 158.551 26.4999C158.551 25.9166 158.799 25.4999 159.212 25.1666C159.626 24.8333 160.122 24.6666 160.619 24.6666C160.95 24.6666 161.198 24.7499 161.529 24.9166C161.777 25.0833 162.025 25.3333 162.274 25.5833C163.018 25.1666 163.68 24.8333 164.342 24.5833C165.004 24.3333 165.583 24.2499 166.079 24.2499C167.072 24.2499 167.651 24.4166 168.065 24.7499C168.396 25.0833 168.561 25.4999 168.561 26.0833C168.561 26.6666 168.313 27.1666 167.899 27.4999C167.403 27.9999 166.907 28.1666 166.245 28.0833ZM176.835 40.1666C175.759 40.1666 174.849 39.9999 174.022 39.7499C173.194 39.4166 172.533 39.0833 171.953 38.4999C171.374 37.9999 170.961 37.4166 170.712 36.6666C170.464 35.9999 170.299 35.2499 170.299 34.4166V29.8333C170.299 28.9999 170.464 28.2499 170.712 27.5833C170.961 26.9166 171.457 26.2499 171.953 25.7499C172.533 25.2499 173.194 24.8333 174.022 24.4999C174.849 24.1666 175.759 24.0833 176.835 24.0833C177.91 24.0833 178.82 24.2499 179.648 24.4999C180.475 24.8333 181.137 25.1666 181.716 25.7499C182.295 26.2499 182.709 26.8333 182.957 27.5833C183.205 28.2499 183.371 28.9999 183.371 29.8333V34.4166C183.371 35.2499 183.205 35.9999 182.957 36.6666C182.709 37.3333 182.212 37.9999 181.716 38.4999C181.137 38.9999 180.475 39.4166 179.648 39.7499C178.82 39.9999 177.91 40.1666 176.835 40.1666ZM176.835 36.4999C177.662 36.4999 178.241 36.3333 178.655 35.9166C179.068 35.5833 179.234 34.9999 179.234 34.4166V29.8333C179.234 29.1666 179.068 28.6666 178.655 28.3333C178.241 27.9999 177.662 27.7499 176.835 27.7499C176.007 27.7499 175.428 27.9166 175.015 28.3333C174.601 28.6666 174.435 29.1666 174.435 29.8333V34.4166C174.435 35.0833 174.601 35.5833 175.015 35.9166C175.428 36.3333 176.007 36.4999 176.835 36.4999ZM186.763 23.7499C186.763 22.7499 186.928 21.9166 187.259 21.1666C187.59 20.4166 188.004 19.8333 188.583 19.3333C189.162 18.8333 189.824 18.4999 190.568 18.2499C191.313 17.9999 192.14 17.8333 192.968 17.8333C193.133 17.8333 193.464 17.8333 193.878 17.8333C194.292 17.8333 194.705 17.9166 195.119 18.0833C195.533 18.2499 195.863 18.4166 196.194 18.6666C196.525 18.9166 196.691 19.3333 196.691 19.8333C196.691 20.4166 196.443 20.9166 196.029 21.1666C195.615 21.4999 195.119 21.6666 194.622 21.6666C194.374 21.6666 194.043 21.6666 193.712 21.5833C193.381 21.4999 193.133 21.4999 192.802 21.4999C192.14 21.4999 191.644 21.6666 191.396 22.0833C191.065 22.4999 190.982 22.9999 190.982 23.4999V24.9999H193.216C193.795 24.9999 194.292 25.1666 194.622 25.4999C195.036 25.8333 195.202 26.2499 195.202 26.8333C195.202 27.3333 195.036 27.8333 194.622 28.1666C194.209 28.4999 193.795 28.6666 193.216 28.6666H190.982V38.1666C190.982 38.6666 190.817 39.1666 190.403 39.4999C190.072 39.8333 189.493 39.9999 188.831 39.9999C188.169 39.9999 187.673 39.8333 187.259 39.4999C186.928 39.1666 186.68 38.7499 186.68 38.1666V23.7499H186.763ZM202.399 20.1666C202.399 20.7499 202.151 21.2499 201.738 21.6666C201.241 22.0833 200.745 22.3333 200.083 22.3333C199.421 22.3333 198.842 22.0833 198.428 21.6666C197.932 21.2499 197.766 20.7499 197.766 20.1666C197.766 19.5833 198.015 19.0833 198.428 18.6666C198.925 18.2499 199.421 17.9999 200.083 17.9999C200.745 17.9999 201.324 18.2499 201.738 18.6666C202.151 19.0833 202.399 19.5833 202.399 20.1666ZM202.151 38.2499C202.151 38.7499 201.986 39.2499 201.572 39.5833C201.158 39.9166 200.662 40.1666 200.083 40.1666C199.504 40.1666 199.007 39.9999 198.594 39.5833C198.18 39.2499 198.015 38.7499 198.015 38.2499V26.1666C198.015 25.6666 198.18 25.2499 198.594 24.8333C199.007 24.4999 199.504 24.2499 200.083 24.2499C200.662 24.2499 201.158 24.4166 201.572 24.8333C201.986 25.1666 202.151 25.6666 202.151 26.1666V38.2499ZM206.288 21.6666C206.288 21.1666 206.453 20.6666 206.867 20.3333C207.198 19.9999 207.777 19.8333 208.439 19.8333C209.101 19.8333 209.597 19.9999 210.011 20.4166C210.342 20.7499 210.59 21.2499 210.59 21.7499V25.1666H212.824C213.403 25.1666 213.899 25.3333 214.23 25.6666C214.644 25.9999 214.81 26.4166 214.81 26.9999C214.81 27.4999 214.644 27.9999 214.23 28.3333C213.817 28.6666 213.403 28.8333 212.824 28.8333H210.59V33.4999C210.59 34.0833 210.59 34.5833 210.673 34.9166C210.673 35.3333 210.756 35.5833 210.921 35.8333C211.004 36.0833 211.169 36.2499 211.417 36.3333C211.666 36.4166 211.914 36.4999 212.245 36.4999C212.41 36.4999 212.493 36.4999 212.576 36.4999C212.658 36.4999 212.741 36.4999 212.741 36.4999C213.734 36.4999 214.396 36.6666 214.727 36.9166C215.058 37.1666 215.223 37.5833 215.223 38.1666C215.223 38.5833 215.14 38.9999 214.975 39.2499C214.809 39.4999 214.561 39.7499 214.313 39.8333C214.065 39.9999 213.734 40.0833 213.403 40.0833C213.072 40.0833 212.658 40.1666 212.327 40.1666C211.169 40.1666 210.176 39.9999 209.432 39.7499C208.687 39.4999 208.025 39.0833 207.612 38.4999C207.198 37.9166 206.867 37.2499 206.702 36.4999C206.536 35.6666 206.453 34.7499 206.453 33.7499V21.6666H206.288Z" fill="#0EE9FF"/>
<path fill-rule="evenodd" clip-rule="evenodd" d="M12.9389 50.4167C12.4425 49.5001 11.9461 48.5001 11.5324 47.5834C10.7051 48.0834 9.96048 48.7501 9.38134 49.5834C8.22307 51.0001 7.313 52.8334 6.73386 54.7501V54.8334C6.48566 55.7501 5.98926 56.4167 5.49286 56.8334C4.99645 57.1667 4.50005 57.3334 4.00365 57.3334C3.50725 57.3334 3.01084 57.0834 2.59717 56.7501C2.10077 56.3334 1.6871 55.5834 1.4389 54.6667C0.446094 49.6667 0.694295 44.9167 1.9353 40.5834C3.17631 36.3334 5.32739 32.5001 8.30581 29.4167C8.55401 23.7501 9.87775 18.5001 12.1116 13.9167C14.6763 8.58339 18.3166 4.16672 22.7015 1.08339C23.2806 0.666723 24.0252 0.750057 24.5216 1.08339C28.9065 4.16672 32.5468 8.58339 35.0288 13.8334C37.1799 18.4167 38.5864 23.7501 38.8346 29.3334C41.813 32.4167 43.9641 36.2501 45.2051 40.5001C46.4461 44.8334 46.6116 49.5834 45.7015 54.5001C45.536 55.4167 45.1224 56.1667 44.5432 56.5834C44.1295 56.9167 43.6331 57.1667 43.1367 57.1667C42.6403 57.1667 42.1439 57.0001 41.6475 56.6667C41.1511 56.2501 40.6547 55.5834 40.4065 54.6667V54.5834C39.8274 52.6667 38.9173 50.8334 37.759 49.4167C37.0972 48.5834 36.3526 47.9167 35.608 47.4167C35.1943 48.4167 34.6979 49.4167 34.1188 50.3334C33.8706 50.8334 33.2914 51.1667 32.7123 51.1667H26.59C26.0936 53.9167 25.4317 55.5001 24.7698 56.2501C24.1907 56.9167 23.1979 56.9167 22.536 56.3334C22.4533 56.3334 22.4533 56.2501 22.4533 56.2501C21.7914 55.5001 21.1295 53.8334 20.6331 51.1667H14.5108C13.7662 51.3334 13.1871 50.9167 12.9389 50.4167ZM10.3742 44.5834C10.0432 43.5001 9.71228 42.4167 9.38134 41.3334C8.80221 39.0834 8.47127 36.7501 8.30581 34.3334C6.8166 36.5001 5.65832 38.9167 4.91372 41.5001C4.00365 44.8334 3.67271 48.5001 4.25185 52.3334C4.91372 50.5834 5.82379 48.9167 6.89933 47.5834C7.89214 46.2501 9.13314 45.2501 10.3742 44.5834ZM12.5252 40.5001C13.1871 43.2501 14.1799 45.7501 15.3382 48.0834H20.054C19.7231 44.6667 19.4749 39.8334 19.4749 33.4167V32.9167C19.4749 31.9167 20.054 31.1667 20.9641 30.7501L21.0468 30.6667C21.7087 30.3334 22.536 30.1667 23.4461 30.0834C23.5288 30.0834 23.6116 30.0834 23.6116 30.0834C24.5216 30.1667 25.349 30.3334 26.0108 30.6667H26.0936C27.0036 31.1667 27.5828 31.8334 27.5828 32.8334V33.3334C27.5828 39.7501 27.3346 44.5834 26.9209 48.0834H31.6367C32.8778 45.7501 33.7878 43.1667 34.4497 40.5001C35.1116 37.7501 35.5252 34.8334 35.5252 31.8334V31.2501C35.5252 25.4167 34.2842 19.9167 32.0504 15.2501C29.8993 10.8334 27.0036 7.08339 23.4461 4.33339C19.8885 7.00006 16.9101 10.7501 14.8418 15.2501C12.608 19.9167 11.367 25.4167 11.367 31.2501V31.8334C11.4497 34.9167 11.8634 37.7501 12.5252 40.5001ZM38.6691 34.2501C38.5036 36.6667 38.09 39.0001 37.5936 41.2501C37.3454 42.3334 37.0144 43.4167 36.6008 44.5001C37.9245 45.2501 39.0828 46.2501 40.0756 47.4167C41.1511 48.7501 42.0612 50.4167 42.7231 52.1667C43.2195 48.3334 42.9713 44.6667 42.0612 41.3334C41.3166 38.8334 40.1583 36.4167 38.6691 34.2501ZM23.5288 49.1667C23.777 47.2501 24.0252 45.2501 24.1907 42.8334C24.3562 40.6667 24.4389 38.1667 24.4389 34.9167V33.4167C24.1907 33.3334 23.8598 33.3334 23.5288 33.2501C23.1979 33.2501 22.867 33.3334 22.6188 33.4167V34.9167C22.6188 38.1667 22.7015 40.6667 22.867 42.8334C23.0324 45.2501 23.1979 47.2501 23.5288 49.1667ZM23.5288 28.0834C25.5972 28.0834 27.4173 27.2501 28.8238 25.9167C30.1475 24.5834 30.9749 22.6667 30.9749 20.5834C30.9749 18.5001 30.1475 16.6667 28.8238 15.2501C27.5 13.8334 25.5972 13.0834 23.5288 13.0834C21.4605 13.0834 19.6403 13.9167 18.2339 15.2501C16.9101 16.5834 16.0828 18.5001 16.0828 20.5834C16.0828 22.6667 16.9101 24.5001 18.2339 25.9167C19.5576 27.2501 21.4605 28.0834 23.5288 28.0834ZM20.4677 23.6667C21.2123 24.4167 22.2878 24.9167 23.5288 24.9167C24.6871 24.9167 25.7626 24.4167 26.59 23.6667C27.3346 22.9167 27.831 21.8334 27.831 20.5834C27.831 19.4167 27.3346 18.3334 26.59 17.5001C25.8454 16.7501 24.7698 16.2501 23.5288 16.2501C22.3706 16.2501 21.295 16.7501 20.4677 17.5001C19.7231 18.2501 19.2267 19.3334 19.2267 20.5834C19.2267 21.8334 19.6403 22.9167 20.4677 23.6667Z" fill="white"/>
</svg>
