<svg width="19" height="15" viewBox="0 0 19 15" fill="none" xmlns="http://www.w3.org/2000/svg">
<path d="M15.285 0H3.71503C1.67166 0 0 1.60176 0 3.55927V11.4407C0 13.3984 1.67185 15 3.71503 15H15.285C17.3283 15 19 13.3982 19 11.4407V3.55927C19 1.60158 17.3281 0 15.2848 0H15.285ZM3.71503 2.03397H15.285C15.8953 2.03397 16.3995 2.36454 16.6914 2.82207L9.81844 7.9323C9.63259 8.08482 9.36734 8.08482 9.15502 7.9323L2.30859 2.82207C2.6005 2.36434 3.10473 2.03397 3.71522 2.03397H3.71503ZM15.285 12.9663H3.71503C2.83932 12.9663 2.12274 12.2798 2.12274 11.4408V5.26273L7.88117 9.53406C8.35874 9.88999 8.94254 10.0681 9.4999 10.0681C10.0837 10.0681 10.6409 9.89 11.1186 9.53406L16.8771 5.26291V11.441C16.8771 12.2799 16.1605 12.9663 15.2848 12.9663H15.285Z" fill="#0EE9FF"/>
</svg>
