<svg width="20" height="26" viewBox="0 0 20 26" fill="none" xmlns="http://www.w3.org/2000/svg">
<path d="M1.81256 9.43456V20.636C1.81256 23.6021 4.18751 26 7.12502 26H12.875C15.8126 26 18.1875 23.602 18.1875 20.636V9.43456C19.2499 8.92966 20 7.8254 20 6.56315C20 4.79622 18.5938 3.37632 16.8438 3.37632H14.5626C14.5626 1.51473 13.0626 0 11.2187 0H8.81241C6.96871 0 5.46854 1.5145 5.46854 3.37632H3.18734C1.4062 3.37632 0 4.79616 0 6.56332C0 7.82534 0.749946 8.92987 1.81256 9.43456ZM12.8751 24.1069H7.12508C5.21882 24.1069 3.68745 22.5607 3.68745 20.6359V9.74998H16.3125V20.6359C16.3127 22.5292 14.7502 24.1069 12.8751 24.1069ZM8.78139 1.89331H11.1877C12.0001 1.89331 12.6565 2.55605 12.6565 3.37632H7.31258C7.34375 2.55599 8.00013 1.89331 8.78139 1.89331ZM3.15637 5.26963H16.8439C17.5314 5.26963 18.1252 5.83748 18.1252 6.56337C18.1252 7.25755 17.5628 7.85712 16.8439 7.85712L3.15637 7.8569C2.46887 7.8569 1.87506 7.28905 1.87506 6.56315C1.87506 5.83748 2.46887 5.26963 3.15637 5.26963Z" fill="#23395E"/>
<path d="M12.2812 12.1481H14.1563V21.3617H12.2812V12.1481Z" fill="#23395E"/>
<path d="M9.06244 12.1481H10.9376V21.3617H9.06244V12.1481Z" fill="#23395E"/>
<path d="M5.8437 12.1481H7.71881V21.3617H5.8437V12.1481Z" fill="#23395E"/>
</svg>
