<svg width="15" height="16" viewBox="0 0 15 16" fill="none" xmlns="http://www.w3.org/2000/svg">
<path d="M10.8345 1.53225C10.6039 1.4162 10.3299 1.43403 10.1159 1.57915C9.90169 1.72428 9.77996 1.97459 9.7964 2.23587C9.81285 2.49704 9.96495 2.72963 10.1955 2.84568C11.4211 3.4644 12.4051 4.48638 12.988 5.74593C13.5707 7.00536 13.718 8.42837 13.4057 9.7838C13.0935 11.1391 12.3402 12.3474 11.268 13.2122C10.196 14.077 8.86805 14.5476 7.49998 14.5476C6.13191 14.5476 4.80395 14.077 3.73192 13.2122C2.65977 12.3474 1.9065 11.1392 1.59423 9.7838C1.28199 8.42834 1.42929 7.00532 2.012 5.74593C2.59484 4.48638 3.57885 3.4644 4.80441 2.84568C5.03502 2.72963 5.18712 2.49706 5.20356 2.23587C5.22 1.97458 5.09828 1.72429 4.8841 1.57915C4.67006 1.43403 4.3961 1.4162 4.16549 1.53225C2.65049 2.29745 1.43406 3.56128 0.713975 5.11855C-0.00632309 6.67581 -0.188073 8.43497 0.198137 10.1108C0.584316 11.7865 1.51577 13.28 2.84134 14.3492C4.1669 15.4183 5.80867 16 7.50001 16C9.19135 16 10.8332 15.4183 12.1587 14.3492C13.4842 13.28 14.4157 11.7864 14.8019 10.1108C15.1881 8.43522 15.0063 6.6759 14.286 5.11855C13.5659 3.56116 12.3494 2.29732 10.8345 1.53225H10.8345Z" fill="#0EE5FB"/>
<path d="M7.50004 8.75607C7.6902 8.75607 7.87267 8.67923 8.00712 8.54242C8.14157 8.4056 8.21708 8.21994 8.21708 8.02643V0.729675C8.21708 0.468993 8.08047 0.2281 7.85862 0.097757C7.63677 -0.0325857 7.36331 -0.0325857 7.14146 0.097757C6.91961 0.2281 6.783 0.46899 6.783 0.729675V8.02643C6.783 8.21992 6.85851 8.4056 6.99296 8.54242C7.12742 8.67923 7.30987 8.75607 7.50004 8.75607Z" fill="#0EE5FB"/>
</svg>
